<svg width="123" height="152" viewBox="0 0 123 152" fill="none" xmlns="http://www.w3.org/2000/svg">
<path d="M44.3955 92.7451C44.3955 86.5439 46.3242 80.8311 50.1816 75.6064C51.8418 73.3604 53.624 71.2119 55.5283 69.1611C62.9502 61.1533 66.6611 52.3154 66.6611 42.6475C66.6611 34.8838 63.4385 29.9277 56.9932 27.7793C55.0889 27.1445 53.1602 26.8271 51.207 26.8271C47.2031 26.8271 43.541 27.6328 40.2207 29.2441C36.9004 30.8555 34.5811 33.248 33.2627 36.4219C35.6553 37.1055 37.5596 38.4238 38.9756 40.377C40.4404 42.3301 41.1729 44.8203 41.1729 47.8477C41.1729 50.8262 40.2207 53.3896 38.3164 55.5381C36.4609 57.6865 33.6533 58.7607 29.8936 58.7607C24.6201 58.7607 20.958 56.3438 18.9072 51.5098C18.126 49.752 17.7354 47.5059 17.7354 44.7715C17.7354 41.9883 18.4189 38.9854 19.7861 35.7627C21.2021 32.4912 23.3994 29.4883 26.3779 26.7539C33.0674 20.6992 41.2461 17.6719 50.9141 17.6719C60.582 17.6719 68.4434 20.3086 74.498 25.582C80.5527 30.8555 83.5801 37.7646 83.5801 46.3096C83.5801 54.8545 78.6973 63.6924 68.9316 72.8232C62.8281 78.5361 58.7266 83.0771 56.627 86.4463C54.5273 89.7666 53.3555 92.9648 53.1113 96.041H44.3955V92.7451ZM38.3896 119.186C38.3896 116.061 39.4883 113.399 41.6855 111.202C43.8828 109.005 46.5439 107.906 49.6689 107.906C52.7939 107.906 55.4551 109.005 57.6523 111.202C59.8496 113.399 60.9482 116.061 60.9482 119.186C60.9482 122.311 59.8496 124.972 57.6523 127.169C55.4551 129.366 52.7939 130.465 49.6689 130.465C46.5439 130.465 43.8828 129.366 41.6855 127.169C39.4883 124.972 38.3896 122.311 38.3896 119.186Z" fill="url(#paint0_linear)"/>
<path d="M50.1816 75.6064L47.7691 73.8233L47.7682 73.8245L50.1816 75.6064ZM55.5283 69.1611L57.7267 71.2025L57.7286 71.2004L55.5283 69.1611ZM33.2627 36.4219L30.4922 35.2711L29.2003 38.3812L32.4385 39.3064L33.2627 36.4219ZM38.9756 40.377L36.5468 42.1379L36.561 42.1575L36.5756 42.177L38.9756 40.377ZM38.3164 55.5381L36.0714 53.5482L36.0586 53.5626L36.0459 53.5772L38.3164 55.5381ZM18.9072 51.5098L21.669 50.3381L21.659 50.3146L21.6487 50.2914L18.9072 51.5098ZM19.7861 35.7627L17.033 34.571L17.0286 34.581L17.0244 34.591L19.7861 35.7627ZM26.3779 26.7539L24.3648 24.5297L24.3569 24.5368L24.3491 24.5439L26.3779 26.7539ZM68.9316 72.8232L66.8827 70.6319L66.8816 70.633L68.9316 72.8232ZM56.627 86.4463L59.1625 88.0497L59.1678 88.0413L59.173 88.033L56.627 86.4463ZM53.1113 96.041V99.041H55.8827L56.1019 96.2784L53.1113 96.041ZM44.3955 96.041H41.3955V99.041H44.3955V96.041ZM47.3955 92.7451C47.3955 87.217 49.0994 82.123 52.5951 77.3883L47.7682 73.8245C43.549 79.5391 41.3955 85.8709 41.3955 92.7451H47.3955ZM52.5942 77.3896C54.1877 75.2337 55.8984 73.1714 57.7267 71.2025L53.3299 67.1198C51.3497 69.2524 49.4959 71.487 47.7691 73.8233L52.5942 77.3896ZM57.7286 71.2004C65.5929 62.7153 69.6611 53.1709 69.6611 42.6475H63.6611C63.6611 51.46 60.3075 59.5914 53.328 67.1218L57.7286 71.2004ZM69.6611 42.6475C69.6611 38.3638 68.7721 34.5679 66.7592 31.4723C64.7237 28.3419 61.7076 26.1885 57.9418 24.9332L56.0445 30.6253C58.724 31.5185 60.542 32.9174 61.7291 34.7431C62.9388 36.6035 63.6611 39.1675 63.6611 42.6475H69.6611ZM57.9418 24.9332C55.7402 24.1994 53.4915 23.8271 51.207 23.8271V29.8271C52.8288 29.8271 54.4375 30.0897 56.0445 30.6253L57.9418 24.9332ZM51.207 23.8271C46.7886 23.8271 42.6733 24.7193 38.9109 26.5452L41.5305 31.9431C44.4087 30.5463 47.6177 29.8271 51.207 29.8271V23.8271ZM38.9109 26.5452C34.9838 28.451 32.1137 31.3675 30.4922 35.2711L36.0332 37.5727C37.0484 35.1285 38.817 33.26 41.5305 31.9431L38.9109 26.5452ZM32.4385 39.3064C34.2075 39.8119 35.538 40.7465 36.5468 42.1379L41.4044 38.6161C39.5811 36.1012 37.1031 34.3991 34.0869 33.5373L32.4385 39.3064ZM36.5756 42.177C37.5655 43.4968 38.1729 45.3109 38.1729 47.8477H44.1729C44.1729 44.3297 43.3154 41.1633 41.3756 38.577L36.5756 42.177ZM38.1729 47.8477C38.1729 50.123 37.4696 51.9706 36.0714 53.5482L40.5614 57.528C42.9718 54.8087 44.1729 51.5293 44.1729 47.8477H38.1729ZM36.0459 53.5772C34.9309 54.8684 33.0815 55.7607 29.8936 55.7607V61.7607C34.2252 61.7607 37.991 60.5047 40.5869 57.4989L36.0459 53.5772ZM29.8936 55.7607C27.7242 55.7607 26.0936 55.2686 24.8444 54.4442C23.5961 53.6203 22.5098 52.3201 21.669 50.3381L16.1455 52.6814C17.3554 55.5334 19.1255 57.8587 21.5394 59.4518C23.9523 61.0444 26.7895 61.7607 29.8936 61.7607V55.7607ZM21.6487 50.2914C21.0939 49.043 20.7354 47.2502 20.7354 44.7715H14.7354C14.7354 47.7615 15.1581 50.4609 16.1658 52.7282L21.6487 50.2914ZM20.7354 44.7715C20.7354 42.4802 21.2988 39.8786 22.5479 36.9343L17.0244 34.591C15.5391 38.0921 14.7354 41.4964 14.7354 44.7715H20.7354ZM22.5393 36.9544C23.7669 34.1181 25.6969 31.4516 28.4067 28.9639L24.3491 24.5439C21.102 27.5249 18.6373 30.8643 17.033 34.571L22.5393 36.9544ZM28.3911 28.9781C34.4874 23.4603 41.9321 20.6719 50.9141 20.6719V14.6719C40.5601 14.6719 31.6474 17.9381 24.3648 24.5297L28.3911 28.9781ZM50.9141 20.6719C60.0126 20.6719 67.1256 23.1393 72.5277 27.8443L76.4684 23.3198C69.7611 17.4779 61.1515 14.6719 50.9141 14.6719V20.6719ZM72.5277 27.8443C77.882 32.5077 80.5801 38.5689 80.5801 46.3096H86.5801C86.5801 36.9604 83.2234 29.2032 76.4684 23.3198L72.5277 27.8443ZM80.5801 46.3096C80.5801 53.6547 76.3779 61.7539 66.8827 70.6319L70.9805 75.0146C81.0167 65.6308 86.5801 56.0543 86.5801 46.3096H80.5801ZM66.8816 70.633C60.7492 76.3729 56.4007 81.1371 54.0809 84.8596L59.173 88.033C61.0524 85.0172 64.9071 80.6994 70.9817 75.0135L66.8816 70.633ZM54.0914 84.8429C51.8007 88.4653 50.4125 92.1274 50.1207 95.8037L56.1019 96.2784C56.2984 93.8023 57.2539 91.0679 59.1625 88.0497L54.0914 84.8429ZM53.1113 93.041H44.3955V99.041H53.1113V93.041ZM47.3955 96.041V92.7451H41.3955V96.041H47.3955ZM41.3896 119.186C41.3896 116.851 42.1758 114.955 43.8069 113.323L39.5642 109.081C36.8008 111.844 35.3896 115.27 35.3896 119.186H41.3896ZM43.8069 113.323C45.4379 111.692 47.3345 110.906 49.6689 110.906V104.906C45.7534 104.906 42.3277 106.317 39.5642 109.081L43.8069 113.323ZM49.6689 110.906C52.0034 110.906 53.8999 111.692 55.531 113.323L59.7737 109.081C57.0102 106.317 53.5845 104.906 49.6689 104.906V110.906ZM55.531 113.323C57.1621 114.955 57.9482 116.851 57.9482 119.186H63.9482C63.9482 115.27 62.5371 111.844 59.7737 109.081L55.531 113.323ZM57.9482 119.186C57.9482 121.52 57.1621 123.417 55.531 125.048L59.7737 129.29C62.5371 126.527 63.9482 123.101 63.9482 119.186H57.9482ZM55.531 125.048C53.8999 126.679 52.0034 127.465 49.6689 127.465V133.465C53.5845 133.465 57.0102 132.054 59.7737 129.29L55.531 125.048ZM49.6689 127.465C47.3345 127.465 45.4379 126.679 43.8069 125.048L39.5642 129.29C42.3277 132.054 45.7534 133.465 49.6689 133.465V127.465ZM43.8069 125.048C42.1758 123.417 41.3896 121.52 41.3896 119.186H35.3896C35.3896 123.101 36.8008 126.527 39.5642 129.29L43.8069 125.048Z" fill="url(#paint1_linear)"/>
<path fill-rule="evenodd" clip-rule="evenodd" d="M97.9367 106.225C109.135 100.257 113.664 94.7273 121.434 75.6301C107.928 69.7992 92.6718 68.9811 82.1517 72.7642C66.8388 79.8508 64.65 87.0968 60.8596 99.6449C60.4113 101.129 59.9407 102.687 59.4232 104.328C60.3597 104.709 61.2671 105.083 62.1503 105.447C74.3737 110.485 81.9667 113.615 97.9367 106.225ZM59.5912 104.19L103.363 84.5318C103.363 84.5318 88.0981 86.459 79.32 90.4485C70.7508 94.3431 59.5912 104.19 59.5912 104.19Z" fill="url(#paint2_linear)"/>
<path fill-rule="evenodd" clip-rule="evenodd" d="M14.302 106.736C7.24879 103.891 4.57157 100.924 0.523012 90.2323C9.76724 86.0701 19.8827 84.7307 26.6121 86.3409C36.3182 89.6056 37.3532 93.7052 39.1454 100.805C39.3574 101.644 39.5799 102.526 39.8287 103.453C39.1891 103.728 38.569 103.997 37.9655 104.259C29.6131 107.887 24.4246 110.141 14.302 106.736ZM39.7256 103.382L11.9473 94.3989C11.9473 94.3989 21.9132 94.6592 27.4813 96.4882C32.9169 98.2737 39.7256 103.382 39.7256 103.382Z" fill="url(#paint3_linear)"/>
<defs>
<linearGradient id="paint0_linear" x1="52" y1="-19.5" x2="50.5" y2="122.5" gradientUnits="userSpaceOnUse">
<stop stop-color="#FFCA3A"/>
<stop offset="1" stop-color="#FF595E"/>
</linearGradient>
<linearGradient id="paint1_linear" x1="63" y1="-16.5" x2="63" y2="152" gradientUnits="userSpaceOnUse">
<stop stop-color="#FFCA3A"/>
<stop offset="0.841166" stop-color="#FF595E"/>
</linearGradient>
<linearGradient id="paint2_linear" x1="132.124" y1="71.2049" x2="60.8905" y2="104.484" gradientUnits="userSpaceOnUse">
<stop stop-color="#FFCA3A"/>
<stop offset="1" stop-color="#8AC926"/>
</linearGradient>
<linearGradient id="paint3_linear" x1="-6.28224" y1="88.2574" x2="33.7115" y2="112.209" gradientUnits="userSpaceOnUse">
<stop stop-color="#FFCA3A"/>
<stop offset="1" stop-color="#8AC926"/>
</linearGradient>
</defs>
</svg>
